<svg width="2671" height="1254" viewBox="0 0 2671 1254" fill="none" xmlns="http://www.w3.org/2000/svg">
<path d="M238.123 402.665C146.939 592.426 -25.0788 1025.18 16.3237 1238.11C39.9823 1315 252.909 466.74 356.415 33L637.361 735.363C681.72 838.869 819.236 1008.91 1073.57 949.768C2098.77 787.116 3671.57 441.11 1761.14 358.305M1169.68 639.25C1169.68 543.137 1014.42 483.991 1014.42 661.43C1014.42 772.329 1147.5 794.509 1169.68 683.61C1172.14 678.681 1175.59 667.344 1169.68 661.43C1162.28 654.036 1162.28 713.183 1191.86 705.789C1221.43 698.396 1339.72 557.924 1317.54 365.698C1299.8 211.918 1320.01 691.003 1332.33 949.768C1324.94 843.798 1320.5 618.549 1361.9 565.317C1413.66 498.777 1480.2 543.137 1480.2 602.283C1480.2 661.43 1428.44 698.396 1361.9 705.789C1339.72 705.789 1332.33 646.643 1339.72 639.25C1347.12 631.857 1295.36 794.509 1494.98 713.183C1694.6 631.857 1642.85 550.53 1642.85 535.744C1642.85 520.957 1620.67 727.969 1709.39 683.61C1798.11 639.25 1798.11 565.317 1783.32 528.35C1768.54 491.384 1753.75 668.823 1842.47 683.61C1931.19 698.396 2005.12 10.8201 1953.37 262.192C1911.97 463.29 2029.76 730.434 2093.84 838.869M2108.63 646.643C2114.54 658.472 2128.27 656.501 2134.4 654.036M2134.4 654.036C2135.82 651.705 2133.36 649.13 2123.41 646.643C2099.75 640.729 2108.63 654.036 2116.02 661.43C2123.16 660.002 2132.45 657.249 2134.4 654.036ZM2227.99 506.171C2262.49 516.028 2332.97 528.35 2338.89 498.777C2346.28 461.811 2173.5 574.475 2250.17 624.463C2311.51 664.454 2369.37 626.339 2390.64 602.283" stroke="white" stroke-width="20" stroke-linecap="round"/>
</svg>
